<svg width="1024" height="1024" viewBox="0 0 1024 1024" xmlns="http://www.w3.org/2000/svg">
  <defs>
    <clipPath id="roundedCorner">
      <rect x="0" y="0" width="1024" height="1024" rx="220" ry="220"/>
    </clipPath>
  </defs>

  <!-- Background -->
  <rect width="1024" height="1024" fill="#3A8FD4" clip-path="url(#roundedCorner)"/>

  <!-- Duck silhouette from logo.svg, scaled and centered -->
  <!-- Original viewBox: 306x280, scaled to ~700x641, centered in 1024x1024 -->
  <g transform="translate(162, 192) scale(2.287)" fill="white">
    <path d="M110.806 0.197967C124.845 -0.894228 142.248 2.56274 154.426 9.82785C166.776 17.2174 175.631 29.2691 178.991 43.2634C182.728 58.21 181.076 76.638 174.069 90.4216C171.342 95.7853 168.158 100.303 165.032 105.386C163.356 108.19 161.394 112.187 162.437 115.535C165.306 124.747 180.411 127.256 188.546 127.796C213.544 129.453 240.739 123.649 263.538 113.495C267.778 111.602 271.933 109.527 275.996 107.275C279.253 105.478 292.698 97.043 296.371 99.32C299.23 101.093 301.701 111.859 302.298 115.49C308.426 152.66 306.554 193.533 284.556 225.528C263.371 256.328 232.381 269.918 197.091 276.658C144.609 284.62 86.7418 280.77 48.6596 238.4C23.8241 210.768 22.3097 171.918 48.7494 144.798C56.2214 137.134 69.7002 129.134 71.3061 117.976C72.0155 111.914 63.7193 103.869 59.8236 99.3982C45.2205 99.1504 29.451 95.3304 15.6606 90.6677C3.41531 86.5274 -3.23785 78.6224 1.57365 65.6491C17.4076 65.3799 34.5049 62.5393 48.1147 53.9519C51.1351 43.9742 53.4862 36.9559 59.5961 28.3112C72.1184 10.5942 89.4311 1.55497 110.806 0.197967ZM93.1166 44.0515C91.1981 39.3645 87.846 37.2758 82.8783 37.6335C79.5218 39.006 77.6513 40.5696 76.1908 44.0349C74.7391 47.5148 74.7387 51.4307 76.1899 54.9109C77.9883 59.2568 81.4853 61.7777 86.2406 61.2644C89.5381 59.9554 91.593 58.3466 93.0473 54.9616C94.5086 51.4764 94.5334 47.5548 93.1166 44.0515Z"/>
  </g>
</svg>
