<svg width="1024" height="1024" viewBox="0 0 1024 1024" fill="none" xmlns="http://www.w3.org/2000/svg">
<path d="M512 96C582.4 96 640 153.6 640 224V672H384V224C384 153.6 441.6 96 512 96ZM438 530C428.059 530 420 538.059 420 548C420 557.941 428.059 566 438 566H586C595.941 566 604 557.941 604 548C604 538.059 595.941 530 586 530H438ZM438 458C428.059 458 420 466.059 420 476C420 485.941 428.059 494 438 494H586C595.941 494 604 485.941 604 476C604 466.059 595.941 458 586 458H438ZM438 386C428.059 386 420 394.059 420 404C420 413.941 428.059 422 438 422H586C595.941 422 604 413.941 604 404C604 394.059 595.941 386 586 386H438ZM438 314C428.059 314 420 322.059 420 332C420 341.941 428.059 350 438 350H586C595.941 350 604 341.941 604 332C604 322.059 595.941 314 586 314H438ZM438 242C428.059 242 420 250.059 420 260C420 269.941 428.059 278 438 278H586C595.941 278 604 269.941 604 260C604 250.059 595.941 242 586 242H438Z" fill="white"/>
<path d="M686 429C711.405 429 732 449.595 732 475V715C732 740.405 711.405 761 686 761H338C312.595 761 292 740.405 292 715V475C292 449.595 312.595 429 338 429H348V687C348 696.941 356.059 705 366 705H658C667.941 705 676 696.941 676 687V429H686Z" fill="white"/>
<path d="M567.985 743C558.873 745.112 549.531 746.784 540 748V872H612C627.4 872 640 884.6 640 900C640 915.4 627.4 928 612 928H412C396.6 928 384 915.4 384 900C384 884.6 396.6 872 412 872H484V743H567.985ZM320 384C335.4 384 348 396.6 348 412V519H292V412C292 396.6 304.6 384 320 384ZM704 384C719.4 384 732 396.6 732 412V519H676V412C676 396.6 688.6 384 704 384Z" fill="white"/>
</svg>
