<svg xmlns="http://www.w3.org/2000/svg" width="1000" height="1000" viewBox="0 0 1000 1000" fill="none"><g clip-path="url(#clip0_7_2)">
<path d="M365.301 45.6434C410.95 42.0938 467.538 53.3289 507.137 76.9405C547.294 100.957 576.088 140.125 587.013 185.606C599.165 234.183 593.793 294.074 571.009 338.87C562.141 356.302 551.788 370.985 541.624 387.505C536.174 396.618 529.794 409.608 533.186 420.489C542.515 450.428 591.631 458.582 618.083 460.337C699.367 465.722 787.795 446.859 861.929 413.859C875.716 407.707 889.227 400.963 902.438 393.644C913.029 387.804 956.747 360.39 968.69 367.79C977.986 373.552 986.021 408.542 987.962 420.342C1007.89 541.145 1001.8 673.982 930.272 777.966C861.386 878.066 760.618 922.233 645.868 944.138C475.216 970.015 287.053 957.502 163.223 819.8C82.4672 729.996 77.543 603.734 163.515 515.594C187.811 490.686 231.64 464.685 236.861 428.422C239.168 408.72 212.192 382.574 199.524 368.044C152.041 367.239 100.764 354.824 55.9225 339.67C16.1053 326.214 -5.52832 300.523 10.1169 258.36C61.6031 257.485 117.197 248.253 161.451 220.344C171.273 187.916 178.918 165.107 198.785 137.011C239.503 79.4312 295.797 50.0537 365.301 45.6434ZM307.781 188.167C301.543 172.935 290.643 166.146 274.49 167.309C263.576 171.769 257.494 176.851 252.745 188.113C248.024 199.423 248.023 212.15 252.742 223.46C258.589 237.585 269.96 245.778 285.423 244.109C296.145 239.855 302.827 234.626 307.556 223.625C312.307 212.298 312.388 199.553 307.781 188.167Z" fill="#F4C665"></path>
</g><defs>
<clipPath id="clip0_7_2">
<rect width="995" height="910" fill="white" transform="translate(5 45)"></rect>
</clipPath>
</defs></svg>